<svg xmlns="http://www.w3.org/2000/svg" viewBox="0 0 35 35" enable-background="new 0 0 50 50"><path stroke="#eee" stroke-width=".5" d="M15.066 2.346c-6.777 1.048-12.092 6.498-12.95 13.323M19.692 2.326c6.658.968 11.948 6.185 13.014 12.822M19.98 32.866c6.582-1.085 11.754-6.325 12.749-12.923M2.151 19.821c.955 6.688 6.187 11.987 12.825 13.055" fill="none"/><path fill="#eee" d="M4 15.7l-.054.055-.527 2.491h-.054l-.718-2.485-.054-.054-.704.004-.054.055-.689 2.493h-.055l-.554-2.486-.055-.054-.541.003-.054.055.002.54.83 3.134.054.053.703-.004.054-.054.689-2.601.055-.001.718 2.594.054.053.703-.004.054-.054.795-3.142-.004-.542-.054-.052zM19.257 33.474c-.004-.786-.624-1.12-1.41-1.229-.787-.107-1.012-.219-1.014-.556-.001-.225.166-.394.672-.397.618-.003.787.165.79.502l.056.056.673-.004.056-.056c-.004-.674-.455-1.177-1.522-1.171-1.068.005-1.513.512-1.51 1.074.004.786.623 1.064 1.41 1.172.787.108 1.013.22 1.015.613.001.337-.278.508-.784.51-.674.004-.9-.22-.903-.613l-.056-.056-.673.004-.056.056c.004.73.512 1.288 1.635 1.282 1.18-.007 1.625-.571 1.622-1.188"/><path fill="#eee" d="M15.7 .798l.021 3.818.056.056.673-.004.056-.056-.014-2.583.057-.001 1.53 2.574.113.055.785-.004.056-.056-.021-3.817-.056-.056-.673.004-.056.056.014 2.583h-.057l-1.53-2.574-.113-.055-.785.004zM31.555 15.592l-.056.055-.019 3.819.056.056 2.639.013.056-.056.004-.561-.056-.056-1.853-.009-.057-.057.005-.899.056-.056 1.741.008.057-.057.003-.56-.057-.057-1.741-.008-.056-.057.004-.786.056-.056 1.853.008.057-.055.003-.562-.056-.056z"/></svg>
